<?xml version="1.0"?>
<svg xmlns="http://www.w3.org/2000/svg" viewBox="0 0 64 64">
    <path d="M 31.990234 2 C 15.453234 2 2 15.458 2 32 C 2 38.199 3.8691094 44.120109 7.4121094 49.162109 L 3.9609375 59.453125 C 3.8409375 59.810125 3.9313125 60.205609 4.1953125 60.474609 C 4.4603125 60.742609 4.8568906 60.839609 5.2128906 60.724609 L 15.90625 57.306641 C 20.71525 60.378641 26.272766 62 32.009766 62 C 48.546766 62 62 48.542 62 32 C 62 15.458 48.546453 2.0019062 32.064453 2.0039062 L 32.046875 2.0019531 C 32.028875 2.0009531 32.009234 2 31.990234 2 z M 31.990234 4 L 32.009766 4.0019531 C 47.443766 4.0019531 60 16.562 60 32 C 60 47.439 47.443766 60 32.009766 60 C 26.504766 60 21.177422 58.401953 16.607422 55.376953 C 16.441422 55.267953 16.250641 55.210938 16.056641 55.210938 C 15.954641 55.210938 15.850953 55.225812 15.751953 55.257812 L 6.484375 58.21875 L 9.4707031 49.316406 C 9.5737031 49.008406 9.5210781 48.669203 9.3300781 48.408203 C 5.8420781 43.620203 4 37.946 4 32 C 4 16.561 16.556234 4 31.990234 4 z M 33.208984 7.9492188 C 30.934609 7.8753437 28.652781 8.1307969 26.425781 8.7167969 C 25.891781 8.8567969 25.572891 9.4035 25.712891 9.9375 C 25.852891 10.4725 26.394594 10.792391 26.933594 10.650391 C 31.011594 9.5813906 35.2915 9.7196875 39.3125 11.054688 C 40.3505 11.399688 41.365078 11.8235 42.330078 12.3125 C 42.475078 12.3865 42.631203 12.419922 42.783203 12.419922 C 43.148203 12.419922 43.498781 12.219094 43.675781 11.871094 C 43.925781 11.379094 43.729328 10.777344 43.236328 10.527344 C 42.183328 9.9933437 41.077313 9.53225 39.945312 9.15625 C 37.749813 8.42675 35.483359 8.0230937 33.208984 7.9492188 z M 46.638672 12.988281 C 46.383922 13.015781 46.139297 13.140969 45.966797 13.355469 C 45.619797 13.785469 45.689141 14.415719 46.119141 14.761719 C 46.735141 15.256719 47.328766 15.791562 47.884766 16.351562 C 48.079766 16.547563 48.33675 16.646484 48.59375 16.646484 C 48.84875 16.646484 49.103828 16.549469 49.298828 16.355469 C 49.690828 15.965469 49.692734 15.333406 49.302734 14.941406 C 48.694734 14.330406 48.045047 13.745125 47.373047 13.203125 C 47.158547 13.030625 46.893422 12.960781 46.638672 12.988281 z M 22.302734 17 C 20.929734 17 19.705906 17.447922 18.878906 18.294922 C 18.021906 19.166922 16.015625 21.20675 16.015625 25.21875 C 16.015625 28.63175 18.034109 31.906094 19.287109 33.621094 L 19.419922 33.810547 C 23.189922 39.274547 27.859312 43.357594 32.570312 45.308594 C 36.743313 47.037594 38.975625 47.5 40.515625 47.5 C 41.178625 47.5 41.71275 47.413641 42.21875 47.306641 C 44.46975 46.821641 47.269391 45.153625 48.025391 43.015625 C 48.654391 41.234625 48.813578 39.333609 48.392578 38.599609 C 48.094578 38.074609 47.589219 37.831438 46.949219 37.523438 L 46.529297 37.318359 C 46.486297 37.297359 42.117203 35.120078 41.283203 34.830078 C 40.094203 34.380078 38.993625 34.718094 38.265625 35.746094 L 37.939453 36.203125 C 37.338453 37.045125 36.770172 37.841312 36.326172 38.320312 C 36.193172 38.463313 35.894141 38.484141 35.619141 38.369141 L 35.375 38.269531 C 34.396 37.873531 32.359891 37.051594 29.837891 34.808594 C 27.817891 33.007594 26.36975 30.729844 25.84375 29.839844 C 25.80175 29.766844 25.787203 29.723703 25.783203 29.720703 C 25.810203 29.653703 25.939547 29.499422 26.060547 29.357422 C 26.259547 29.110422 26.455391 28.904266 26.650391 28.697266 C 26.819391 28.517266 26.989109 28.337719 27.162109 28.136719 L 27.242188 28.044922 C 27.589188 27.644922 27.862859 27.327859 28.130859 26.755859 C 28.651859 25.746859 28.189109 24.783797 28.037109 24.466797 C 27.916109 24.215797 27.006297 22.007875 26.404297 20.546875 L 25.734375 18.923828 L 25.734375 18.921875 C 25.091375 17.382875 24.380469 17.07725 23.230469 17.03125 C 22.952469 17.01625 22.645734 17 22.302734 17 z M 22.302734 19 C 22.599734 19 22.867906 19.014297 23.128906 19.029297 C 23.243906 19.034297 23.483109 19.044406 23.537109 19.066406 C 23.542109 19.070406 23.664719 19.161453 23.886719 19.689453 L 24.554688 21.308594 C 25.452687 23.487594 26.098422 25.052031 26.232422 25.332031 C 26.354422 25.586031 26.394937 25.757047 26.335938 25.873047 C 26.168937 26.227047 26.040516 26.377328 25.728516 26.736328 L 25.646484 26.830078 C 25.494484 27.007078 25.345312 27.166219 25.195312 27.324219 C 24.965312 27.568219 24.736953 27.810563 24.501953 28.101562 C 24.148953 28.514563 23.323234 29.483609 24.115234 30.849609 C 24.831234 32.062609 26.354859 34.383781 28.505859 36.300781 C 31.286859 38.775781 33.626 39.720047 34.625 40.123047 L 34.849609 40.214844 C 35.916609 40.654844 37.069063 40.450594 37.789062 39.683594 C 38.324062 39.106594 38.928406 38.258281 39.566406 37.363281 L 39.892578 36.90625 C 40.099578 36.61425 40.240562 36.573937 40.601562 36.710938 C 41.163562 36.906937 44.384813 38.481469 45.632812 39.105469 L 46.080078 39.326172 C 46.284078 39.424172 46.530094 39.541125 46.621094 39.578125 C 46.659094 39.955125 46.610578 41.022609 46.142578 42.349609 C 45.669578 43.687609 43.515734 44.982563 41.802734 45.351562 C 40.776734 45.571562 39.224891 45.901938 33.337891 43.460938 C 28.977891 41.654938 24.620406 37.824781 21.066406 32.675781 C 20.976406 32.544781 20.914516 32.454094 20.853516 32.371094 C 19.793516 30.921094 18.017578 28.06275 18.017578 25.21875 C 18.017578 22.02575 19.563953 20.452953 20.376953 19.626953 C 20.751953 19.239953 21.490734 19 22.302734 19 z M 9.5625 30.90625 C 9.0125 30.87525 8.5378594 31.295703 8.5058594 31.845703 C 8.4728594 32.396703 8.8923594 32.869344 9.4433594 32.902344 L 11.511719 33.023438 C 11.531719 33.024437 11.552266 33.025391 11.572266 33.025391 C 12.097266 33.025391 12.537359 32.616938 12.568359 32.085938 C 12.601359 31.534938 12.181859 31.060344 11.630859 31.027344 L 9.5625 30.90625 z M 12.146484 36.304688 C 12.018938 36.279297 11.884047 36.278891 11.748047 36.306641 L 9.7207031 36.722656 C 9.1797031 36.833656 8.8294063 37.363297 8.9414062 37.904297 C 9.0384062 38.378297 9.456875 38.703125 9.921875 38.703125 C 9.987875 38.703125 10.055047 38.695641 10.123047 38.681641 L 12.152344 38.265625 C 12.692344 38.153625 13.040687 37.624984 12.929688 37.083984 C 12.846438 36.677484 12.529125 36.380859 12.146484 36.304688 z M 13.613281 41.267578 C 13.483656 41.275859 13.353719 41.309344 13.230469 41.371094 L 11.378906 42.300781 C 10.884906 42.548781 10.683641 43.148578 10.931641 43.642578 C 11.106641 43.992578 11.459172 44.195312 11.826172 44.195312 C 11.976172 44.195312 12.129438 44.160844 12.273438 44.089844 L 14.126953 43.162109 C 14.620953 42.913109 14.819266 42.312359 14.572266 41.818359 C 14.387016 41.448609 14.002156 41.242734 13.613281 41.267578 z M 16.695312 45.632812 C 16.439813 45.617812 16.179156 45.700766 15.972656 45.884766 L 14.423828 47.259766 C 14.010828 47.625766 13.974797 48.258875 14.341797 48.671875 C 14.539797 48.894875 14.813844 49.007813 15.089844 49.007812 C 15.325844 49.007812 15.562906 48.923906 15.753906 48.753906 L 17.300781 47.378906 C 17.713781 47.012906 17.751766 46.379797 17.384766 45.966797 C 17.201266 45.759797 16.950812 45.647813 16.695312 45.632812 z M 20.804688 49.097656 C 20.421344 49.026547 20.014359 49.184 19.787109 49.53125 L 18.648438 51.259766 C 18.344438 51.720766 18.472594 52.340531 18.933594 52.644531 C 19.102594 52.755531 19.293422 52.810547 19.482422 52.810547 C 19.807422 52.810547 20.126359 52.651375 20.318359 52.359375 L 21.457031 50.630859 C 21.760031 50.169859 21.634828 49.550094 21.173828 49.246094 C 21.058578 49.170094 20.932469 49.121359 20.804688 49.097656 z"></path>
</svg>
